<?xml version="1.0" encoding="UTF-8" standalone="no"?>
<!-- Created with Inkscape (http://www.inkscape.org/) -->

<svg
   width="1080"
   height="1080"
   viewBox="0 0 285.75 285.75"
   version="1.1"
   id="svg5"
   inkscape:version="1.1.2 (b8e25be833, 2022-02-05)"
   sodipodi:docname="drawing.svg"
   inkscape:export-filename="G:\A-A\MyPython\Shaer\Sheroon\drawing.png"
   inkscape:export-xdpi="96"
   inkscape:export-ydpi="96"
   xmlns:inkscape="http://www.inkscape.org/namespaces/inkscape"
   xmlns:sodipodi="http://sodipodi.sourceforge.net/DTD/sodipodi-0.dtd"
   xmlns="http://www.w3.org/2000/svg"
   xmlns:svg="http://www.w3.org/2000/svg">
  <sodipodi:namedview
     id="namedview7"
     pagecolor="#ffffff"
     bordercolor="#666666"
     borderopacity="1.0"
     inkscape:pageshadow="2"
     inkscape:pageopacity="0.0"
     inkscape:pagecheckerboard="true"
     inkscape:document-units="px"
     showgrid="false"
     units="px"
     scale-x="1"
     inkscape:zoom="0.52639326"
     inkscape:cx="473.03037"
     inkscape:cy="542.37017"
     inkscape:window-width="1920"
     inkscape:window-height="1001"
     inkscape:window-x="-9"
     inkscape:window-y="-9"
     inkscape:window-maximized="1"
     inkscape:current-layer="layer1" />
  <defs
     id="defs2">
    <inkscape:path-effect
       effect="powerstroke"
       id="path-effect4883"
       is_visible="true"
       lpeversion="1"
       offset_points="0,6"
       not_jump="false"
       sort_points="true"
       interpolator_type="CubicBezierJohan"
       interpolator_beta="0.2"
       start_linecap_type="zerowidth"
       linejoin_type="extrp_arc"
       miter_limit="4"
       scale_width="1"
       end_linecap_type="zerowidth" />
    <inkscape:path-effect
       effect="powerstroke"
       id="path-effect4879"
       is_visible="true"
       lpeversion="1"
       offset_points="0.038332039,6"
       not_jump="false"
       sort_points="true"
       interpolator_type="CubicBezierJohan"
       interpolator_beta="0.2"
       start_linecap_type="zerowidth"
       linejoin_type="extrp_arc"
       miter_limit="4"
       scale_width="1"
       end_linecap_type="zerowidth" />
    <inkscape:path-effect
       effect="powerstroke"
       id="path-effect4875"
       is_visible="true"
       lpeversion="1"
       offset_points="3,6"
       not_jump="false"
       sort_points="true"
       interpolator_type="CubicBezierJohan"
       interpolator_beta="0.2"
       start_linecap_type="zerowidth"
       linejoin_type="extrp_arc"
       miter_limit="4"
       scale_width="1"
       end_linecap_type="zerowidth" />
    <inkscape:path-effect
       effect="powerstroke"
       id="path-effect3224"
       is_visible="true"
       lpeversion="1"
       offset_points="0,6"
       not_jump="false"
       sort_points="true"
       interpolator_type="CubicBezierJohan"
       interpolator_beta="0.2"
       start_linecap_type="zerowidth"
       linejoin_type="extrp_arc"
       miter_limit="4"
       scale_width="1"
       end_linecap_type="zerowidth" />
    <inkscape:path-effect
       effect="powerstroke"
       id="path-effect1162"
       is_visible="true"
       lpeversion="1"
       offset_points="0.038332039,6"
       not_jump="false"
       sort_points="true"
       interpolator_type="CubicBezierJohan"
       interpolator_beta="0.2"
       start_linecap_type="zerowidth"
       linejoin_type="extrp_arc"
       miter_limit="4"
       scale_width="1"
       end_linecap_type="zerowidth" />
    <inkscape:path-effect
       effect="powerstroke"
       id="path-effect856"
       is_visible="true"
       lpeversion="1"
       offset_points="3,6"
       not_jump="false"
       sort_points="true"
       interpolator_type="CubicBezierJohan"
       interpolator_beta="0.2"
       start_linecap_type="zerowidth"
       linejoin_type="extrp_arc"
       miter_limit="4"
       scale_width="1"
       end_linecap_type="zerowidth" />
    <filter
       inkscape:collect="always"
       style="color-interpolation-filters:sRGB"
       id="filter5043"
       x="-0.069243046"
       y="-0.069243046"
       width="1.1384861"
       height="1.1384861">
      <feGaussianBlur
         inkscape:collect="always"
         stdDeviation="7.2394703"
         id="feGaussianBlur5045" />
    </filter>
  </defs>
  <g
     inkscape:label="Layer 1"
     inkscape:groupmode="layer"
     id="layer1">
    <g
       id="g4855"
       transform="translate(55.444921,-223.91218)">
      <path
         style="fill:#000000;fill-rule:nonzero;stroke:none;stroke-width:0.264583px;stroke-linecap:butt;stroke-linejoin:miter;stroke-opacity:1"
         d="m 241.54362,94.424814 c 0,0 -4.47105,2.576759 -16.23898,8.759536 -8.69934,4.57058 -22.67589,11.73333 -38.05909,18.76388 -13.70013,6.26133 -29.55421,12.89475 -43.93646,17.30107 -6.80581,2.08511 -13.31441,3.68134 -19.09932,4.49066 -2.82892,0.39577 -5.46991,0.60118 -7.87498,0.58662 -2.37911,-0.0144 -4.49703,-0.24401 -6.31972,-0.70068 -7.51067,-1.87068 -14.412645,-5.60162 -20.599954,-10.3164 -6.05868,-4.61677 -11.311221,-10.08561 -15.620879,-15.38516 -4.272533,-5.2539 -7.495572,-10.16044 -9.637362,-13.82009 13.80829,0.29727 32.685612,0.62819 46.341195,0.63103 -0.0209,0.0439 -0.042,0.088 -0.0631,0.13225 -2.9263,6.13188 -8.38147,17.20496 -15.229911,29.52636 -5.333836,9.5964 -11.681739,20.24766 -18.170411,29.42101 -3.116124,4.40542 -6.242478,8.43813 -9.282434,11.83333 -3.01897,3.37176 -5.873987,6.02616 -8.490752,7.81367 -5.5988,3.8004 -12.599548,6.90935 -19.926697,9.42672 -7.622631,2.61889 -15.470306,4.55426 -22.183003,5.96051 -8.4725166,1.77492 -15.9663309,2.87267 -19.7274074,3.39895 -4.1916523,0.58653 -5.5583274,0.74759 -5.5583274,0.74759 0,0 1.3757777,0.0761 5.6170343,-0.0884 3.9671764,-0.15389 11.2339022,-0.5784 20.0636025,-1.72207 6.860125,-0.88857 14.958506,-2.2517 22.978864,-4.33269 7.64997,-1.98488 15.360398,-4.6561 21.868956,-8.27354 3.39815,-1.89811 6.889223,-4.73146 10.362545,-8.12894 3.521445,-3.44455 7.080244,-7.52409 10.565448,-11.91699 7.243364,-9.12985 14.301789,-19.78352 20.183693,-29.25609 7.45096,-11.99945 13.7943,-23.37864 17.01452,-29.22922 3.51522,-6.38655 4.75662,-8.74225 4.77065,-8.77132 l 4.23329,-8.771966 -9.73863,0.165062 c -13.4927,0.228689 -36.666844,1.395956 -62.566269,2.827427 l -3.665407,6.221227 c 0.434728,-0.0106 5.924013,9.47972 15.703264,20.13288 4.851823,5.2854 10.692535,10.75352 17.379182,15.31618 6.837815,4.66581 14.42268,8.29026 22.61178,9.90802 2.1775,0.43262 4.5794,0.57289 7.13352,0.48668 2.58892,-0.0874 5.37028,-0.40883 8.28451,-0.91571 5.95075,-1.03503 12.55478,-2.86096 19.36576,-5.1408 14.40155,-4.82063 30.18653,-11.8255 43.76896,-18.37347 15.3142,-7.38284 29.06049,-14.77901 37.71065,-19.56306 11.63832,-6.436698 16.03167,-9.144046 16.03167,-9.144046 z"
         id="path854"
         inkscape:path-effect="#path-effect856"
         inkscape:original-d="m 241.54362,94.424814 c 0,0 -100.08322,57.998766 -131.91181,50.925746 C 77.803218,138.27753 57.291459,99.729577 57.291459,99.729577 l 62.596221,-1.060953 c 0,0 -35.065605,72.660846 -59.05971,87.351806 -23.994105,14.69095 -68.9619428,16.97524 -68.9619428,16.97524"
         sodipodi:nodetypes="cscczc" />
      <path
         style="fill:#000000;fill-rule:nonzero;stroke:none;stroke-width:0.264583px;stroke-linecap:butt;stroke-linejoin:miter;stroke-opacity:1"
         d="m 61.03147,132.42502 c 0,0 -3.522933,-4.86086 -3.62946,-4.78927 -0.160794,0.10805 -4.450657,3.06516 -9.198654,6.11796 -2.555026,1.6428 -5.658408,3.587 -8.867419,5.47162 -2.956485,1.73631 -6.032718,3.43948 -8.816139,4.78321 -1.32379,0.63907 -2.539532,1.17652 -3.61726,1.5934 -1.079721,0.41765 -1.865565,0.65452 -2.445604,0.79076 -0.253006,0.0594 -0.432995,0.0899 -0.458671,0.10829 -0.03008,0.0215 0.08448,0.0352 0.364959,0.15301 0.280631,0.11791 0.71626,0.35007 1.126952,0.79438 0.419893,0.45427 0.656143,0.96211 0.751642,1.39272 0.08983,0.40505 0.03505,0.6164 0.01548,0.62264 -0.02438,0.008 -0.02685,-0.17439 0.04838,-0.4952 0.157355,-0.67102 0.580237,-1.76197 1.417048,-3.31873 0.815524,-1.51716 1.973778,-3.38626 3.548936,-5.65504 1.551712,-2.235 3.489146,-4.83094 5.871927,-7.83255 4.646234,-5.85535 8.513621,-9.7326 11.622958,-12.07164 1.52501,-1.14721 2.784787,-1.86145 3.795573,-2.27753 0.993999,-0.40917 1.67218,-0.49945 2.092811,-0.49643 0.209096,0.001 0.386787,0.026 0.540896,0.0689 0.156286,0.0435 0.321104,0.11488 0.499006,0.23782 0.362137,0.25024 0.797726,0.73147 1.214175,1.58319 0.413608,0.84592 0.763855,1.96865 1.002227,3.37205 0.236832,1.39432 0.353575,3.00783 0.335667,4.80849 -0.03588,3.6079 -0.610578,7.83509 -1.726252,12.34595 -1.118706,4.52311 -2.765842,9.26962 -4.906704,13.90278 -2.161426,4.67766 -4.808772,9.20293 -7.897853,13.26561 -3.136197,4.12464 -6.702529,7.74007 -10.655954,10.57565 -8.505049,6.08964 -14.578778,10.27301 -18.927112,13.16655 -4.6684726,3.10657 -7.4946811,4.82392 -9.216161,5.79342 -0.9445696,0.53196 -1.5913569,0.85837 -2.0371032,1.06268 -0.2368886,0.10857 -0.4202184,0.18413 -0.5627032,0.23768 -0.1485955,0.0558 -0.2557343,0.0888 -0.3318257,0.10931 -0.039564,0.0106 -0.073023,0.0185 -0.099861,0.024 -0.027695,0.006 -0.051514,0.01 -0.071363,0.0115 -0.020937,0.002 -0.039316,0.002 -0.056473,-0.001 -0.017877,-0.003 -0.033798,-0.009 -0.048161,-0.0183 -0.030969,-0.0195 -0.049496,-0.0492 -0.05974,-0.0734 -0.011431,-0.027 -0.012593,-0.0447 -0.012593,-0.0447 0,0 -0.011476,0.013 -0.025777,0.0426 -0.011865,0.0245 -0.029093,0.0688 -0.028191,0.12591 4.365e-4,0.0276 0.00513,0.0595 0.017717,0.0941 0.012182,0.0335 0.031567,0.0689 0.060582,0.10421 0.028042,0.0342 0.064402,0.0674 0.1102007,0.0981 0.044374,0.0297 0.097273,0.0569 0.1595413,0.0802 0.1193622,0.0446 0.2742908,0.0755 0.4738224,0.0833 0.1906361,0.007 0.4250692,-0.006 0.7142757,-0.0506 0.5445656,-0.084 1.2990728,-0.2806 2.3574571,-0.67527 1.9367294,-0.72222 4.9895449,-2.14382 9.9215489,-4.94893 4.594642,-2.61323 10.914342,-6.48047 19.696675,-12.25664 4.416444,-2.90948 8.403502,-6.65566 11.920546,-10.92491 3.463478,-4.20424 6.458514,-8.90067 8.944503,-13.76376 2.461352,-4.81489 4.42146,-9.7893 5.834009,-14.58775 1.403591,-4.76802 2.2771,-9.39899 2.545297,-13.53814 0.134219,-2.07144 0.118942,-4.05169 -0.06935,-5.88499 -0.187837,-1.82889 -0.554221,-3.57489 -1.157895,-5.14445 -0.610541,-1.58742 -1.48343,-3.05906 -2.747001,-4.24789 -0.636509,-0.59885 -1.360336,-1.1116 -2.171341,-1.51179 -0.813574,-0.40147 -1.684222,-0.67448 -2.59691,-0.81867 -1.830947,-0.28926 -3.72788,-0.0465 -5.608293,0.56871 -1.888838,0.61801 -3.840134,1.63643 -5.84441,2.99841 -4.051351,2.75306 -8.600435,7.10331 -13.657362,13.14643 -2.541035,3.03544 -4.667825,5.70953 -6.424585,8.06011 -1.775917,2.3762 -3.202382,4.46 -4.303927,6.2802 -1.103918,1.82412 -1.962693,3.51548 -2.49586,5.06368 -0.273406,0.79392 -0.489629,1.63086 -0.587984,2.49014 -0.09912,0.86598 -0.08941,1.85082 0.175224,2.87146 0.276437,1.06615 0.812823,2.0913 1.644539,2.95564 0.826371,0.85879 1.78641,1.39621 2.690036,1.72194 0.894482,0.32243 1.772528,0.45309 2.535283,0.49579 0.779416,0.0436 1.543896,0.001 2.25592,-0.0831 1.437115,-0.16992 2.930194,-0.54256 4.364556,-0.99242 1.496168,-0.46924 3.058262,-1.06397 4.614463,-1.71974 3.261784,-1.3745 6.72922,-3.11569 9.897325,-4.81468 3.463504,-1.8574 6.79302,-3.78493 9.488125,-5.39121 5.38355,-3.20858 9.199219,-5.70104 9.75528,-6.07471 0.115936,-0.0779 -3.063619,-5.17078 -3.063619,-5.17078 z"
         id="path1160"
         inkscape:path-effect="#path-effect1162"
         inkscape:original-d="m 61.03147,132.42502 c 0,0 -66.3795972,45.03904 -27.216327,-2.97755 39.16327,-48.016583 34.023764,26.33812 0.262387,49.51182 -33.76137715,23.1737 -32.4404842,18.78527 -32.4404842,18.78527"
         sodipodi:nodetypes="czzc" />
      <path
         style="fill:#000000;fill-rule:nonzero;stroke:none;stroke-width:0.264583px;stroke-linecap:butt;stroke-linejoin:miter;stroke-opacity:1"
         d="m 7.1083234,140.03397 c 0,0 -5.1668394,-3.05021 -5.1668394,-3.05021 -6.5227641,11.04911 -14.069121,22.91458 -22.062686,32.86146 -6.076361,7.56118 -11.86038,13.32249 -17.265756,17.06386 -2.41988,1.67493 -4.684348,2.88947 -6.797799,3.69806 -2.028126,0.77594 -3.917064,1.17832 -5.68578,1.25951 -1.727293,0.0793 -3.394259,-0.14509 -5.018637,-0.6778 -1.614079,-0.52933 -3.197779,-1.36749 -4.741876,-2.52282 -3.137992,-2.3479 -5.918593,-5.8607 -8.262861,-10.11914 -2.4423,-4.43652 -4.288617,-9.45491 -5.599466,-14.37277 -1.469906,-5.51458 -2.245161,-10.80202 -2.541542,-15.22593 -0.174511,-2.60483 -0.185173,-4.92393 -0.08486,-6.91663 0.123677,-2.45693 0.414295,-4.40881 0.771556,-5.90717 -0.357075,1.49758 -0.742182,3.43442 -1.03997,5.88409 -0.242121,1.99175 -0.425511,4.31496 -0.486195,6.95794 -0.102947,4.48361 0.151184,9.89779 1.06263,15.69569 0.808886,5.1455 2.14043,10.59771 4.174215,15.64983 1.931583,4.79824 4.541889,9.34609 8.032827,12.84964 1.745694,1.752 3.725399,3.25659 5.961868,4.393 2.269017,1.15295 4.756566,1.90303 7.447792,2.1665 2.751952,0.26942 5.625786,0.0212 8.587381,-0.73706 3.067406,-0.78533 6.183203,-2.10551 9.326177,-3.90874 6.942455,-3.98313 13.903933,-10.25689 20.710826,-18.05779 8.9523423,-10.25965 17.1868592,-22.65347 23.845838,-33.93331 0,0 -5.1668396,-3.05021 -5.1668396,-3.05021 z"
         id="path3222"
         inkscape:path-effect="#path-effect3224"
         inkscape:original-d="M 7.1083234,140.03397 C -59.54766,252.94454 -82.020064,164.10616 -75.348226,136.12439"
         sodipodi:nodetypes="cc" />
      <rect
         style="fill:#000000;stroke-width:0.343958;stroke-linecap:round;stroke-linejoin:round;paint-order:stroke markers fill;stop-color:#000000"
         id="rect4738"
         width="15.581664"
         height="15.581664"
         x="164.49715"
         y="-55.505459"
         transform="rotate(45)" />
      <rect
         style="fill:#000000;stroke-width:0.343958;stroke-linecap:round;stroke-linejoin:round;paint-order:stroke markers fill;stop-color:#000000"
         id="rect4842"
         width="15.581664"
         height="15.581664"
         x="180.07881"
         y="-71.087128"
         transform="rotate(45)" />
      <rect
         style="fill:#000000;stroke-width:0.343958;stroke-linecap:round;stroke-linejoin:round;paint-order:stroke markers fill;stop-color:#000000"
         id="rect4844"
         width="15.581664"
         height="15.581664"
         x="164.12297"
         y="-71.461296"
         transform="rotate(45)" />
      <rect
         style="fill:#000000;stroke-width:0.343958;stroke-linecap:round;stroke-linejoin:round;paint-order:stroke markers fill;stop-color:#000000"
         id="rect4846"
         width="15.581664"
         height="15.581664"
         x="62.590832"
         y="120.04239"
         transform="rotate(45)" />
    </g>
    <g
       id="g866"
       transform="matrix(0.94814819,0,0,0.94814819,7.3719572,7.3719572)"
       inkscape:export-filename="G:\A-A\MyPython\Shaer\Sheroon\logo.png"
       inkscape:export-xdpi="96"
       inkscape:export-ydpi="96">
      <circle
         style="mix-blend-mode:normal;fill:#ffff00;stroke-width:0.383019;stroke-linecap:round;stroke-linejoin:round;paint-order:stroke markers fill;filter:url(#filter5043);stop-color:#000000"
         id="circle5041"
         cx="142.875"
         cy="142.875"
         r="125.46191"
         transform="matrix(1.0002685,0,0,1.0002685,-1.0302603e-5,-1.0302603e-5)" />
      <circle
         style="fill:#ffff00;stroke-width:0.369999;stroke-linecap:round;stroke-linejoin:round;paint-order:stroke markers fill;stop-color:#000000"
         id="path4937"
         cx="142.875"
         cy="142.875"
         r="121.19691" />
      <path
         id="path4857"
         style="fill:#000000;fill-rule:nonzero;stroke:none;stroke-width:0.200797px;stroke-linecap:butt;stroke-linejoin:miter;stroke-opacity:1"
         d="m 206.82093,90.702448 -8.36171,8.36171 8.36171,8.361712 8.36171,-8.361712 z m -8.36171,8.76331 -8.36171,8.361712 8.36171,8.36171 8.36171,-8.36171 z m 8.36171,8.361712 8.36171,8.36171 8.36171,-8.36171 -8.36171,-8.361712 z m -28.12454,3.35276 -7.39066,0.1255 c -10.23986,0.17356 -27.82709,1.05926 -47.48264,2.14563 l -2.78174,4.72147 c 0.32992,-0.008 4.49597,7.19414 11.91762,15.27902 3.68214,4.01119 8.11446,8.16119 13.18908,11.62387 1.27332,0.86886 2.58182,1.68867 3.92181,2.45153 -3.44855,5.99019 -7.29151,12.23345 -11.20895,17.77173 -2.36488,3.34335 -4.73768,6.40389 -7.04476,8.98057 -2.29115,2.55889 -4.45764,4.57361 -6.44355,5.93018 -4.24903,2.88419 -9.56222,5.24331 -15.12292,7.15379 -5.78495,1.98752 -11.740406,3.45659 -16.834796,4.52382 -6.429947,1.34701 -12.117194,2.17997 -14.971543,2.57938 -3.181122,0.44513 -4.218307,0.56748 -4.218307,0.56748 0,0 1.043858,0.0578 4.262623,-0.0671 3.010764,-0.11679 8.525834,-0.43919 15.226853,-1.30714 5.206274,-0.67435 11.35235,-1.70875 17.43915,-3.28806 5.8057,-1.50636 11.65728,-3.53348 16.59674,-6.27883 2.57892,-1.44051 5.22806,-3.591 7.86403,-6.16941 2.67249,-2.61413 5.37357,-5.70986 8.01855,-9.04371 4.51869,-5.69555 8.93371,-12.16691 12.84474,-18.28509 2.20792,0.85713 4.48681,1.53703 6.83103,2.00013 1.65254,0.32832 3.47531,0.43486 5.41368,0.36943 1.96478,-0.0663 4.07541,-0.31027 6.28706,-0.69494 4.51614,-0.78551 9.52804,-2.17122 14.69702,-3.90143 10.9296,-3.65846 22.90945,-8.97465 33.21741,-13.94402 11.62222,-5.60298 22.05432,-11.21613 28.61908,-14.84683 8.83254,-4.88493 12.16666,-6.93966 12.16666,-6.93966 0,0 -3.39303,1.95565 -12.32393,6.64787 -6.60209,3.46869 -17.20921,8.90452 -28.8838,14.24013 -10.39727,4.75184 -22.42914,9.78621 -33.34409,13.13024 -5.16505,1.58243 -10.10477,2.79386 -14.49504,3.40807 -2.14692,0.30035 -4.15121,0.45617 -5.97646,0.44512 -1.80554,-0.0109 -3.41272,-0.18522 -4.79599,-0.5318 -1.98245,-0.49376 -3.90757,-1.16141 -5.77488,-1.96875 0.27826,-0.44391 0.56355,-0.89373 0.83535,-1.33146 5.65466,-9.1066 10.4687,-17.74247 12.91259,-22.18259 2.66776,-4.84687 3.60959,-6.63483 3.62023,-6.65689 z m -54.76466,8.69546 c 15.6352,0.33338 29.96184,0.58455 40.32531,0.5867 -0.0159,0.0333 -0.0318,0.0668 -0.0478,0.1004 -2.22083,4.65359 -6.36098,13.05716 -11.55839,22.40809 -0.29621,0.53294 -0.60488,1.07778 -0.90908,1.61854 -1.19173,-0.76534 -2.35489,-1.58024 -3.48492,-2.44133 -4.59804,-3.50375 -8.58459,-7.65411 -11.85527,-11.67604 -3.2425,-3.98728 -5.68836,-7.71114 -7.3138,-10.48851 z m -2.39114,4.50617 c -1.05799,-0.0189 -2.13499,0.17219 -3.2053,0.52238 -1.43347,0.46902 -2.91449,1.24181 -4.43558,2.27544 -3.07464,2.08935 -6.52718,5.39087 -10.36497,9.97711 -1.92844,2.30365 -3.542366,4.33297 -4.875606,6.11686 -1.34777,1.80335 -2.430494,3.38481 -3.266476,4.76618 -0.837784,1.38436 -1.489218,2.66803 -1.893846,3.84299 -0.207494,0.60252 -0.37166,1.23781 -0.446304,1.88993 -0.07523,0.65721 -0.06789,1.40438 0.13295,2.17896 0.209792,0.80912 0.616718,1.58731 1.247922,2.24328 0.627147,0.65175 1.35592,1.05955 2.041699,1.30675 0.678838,0.2447 1.345176,0.3437 1.924045,0.3761 0.59151,0.0331 1.17151,0.001 1.711866,-0.0627 1.09066,-0.12896 2.22381,-0.41198 3.31237,-0.75339 1.13547,-0.35611 2.32116,-0.8075 3.50218,-1.30518 2.47543,-1.04313 5.10674,-2.36456 7.51107,-3.65396 2.62852,-1.40961 5.15549,-2.87221 7.20085,-4.09124 0.34857,-0.20774 0.6755,-0.40518 1.00595,-0.60435 -0.79508,2.69571 -1.82224,5.45665 -3.07471,8.16719 -1.64034,3.54996 -3.64935,6.98407 -5.99371,10.06731 -2.38012,3.13026 -5.08686,5.87402 -8.08718,8.026 -6.454636,4.62154 -11.064023,7.79644 -14.364053,9.9924 -3.542988,2.35763 -5.687708,3.66098 -6.994171,4.39675 -0.716851,0.40372 -1.207696,0.65128 -1.545981,0.80633 -0.17978,0.0824 -0.318952,0.13976 -0.427085,0.1804 -0.112772,0.0424 -0.194035,0.0676 -0.251782,0.0831 -0.03002,0.008 -0.05571,0.0138 -0.07608,0.018 -0.02102,0.004 -0.03906,0.008 -0.05412,0.009 -0.01589,0.001 -0.02973,0.001 -0.04275,-0.001 -0.01357,-0.002 -0.02557,-0.007 -0.03647,-0.0137 -0.0235,-0.0148 -0.03772,-0.0373 -0.04549,-0.0557 -0.0087,-0.0205 -0.0094,-0.0341 -0.0094,-0.0341 0,0 -0.0088,0.0101 -0.01961,0.0326 -0.009,0.0186 -0.02225,0.0519 -0.02157,0.0953 3.32e-4,0.021 0.0042,0.0451 0.01373,0.0714 0.0092,0.0254 0.02387,0.0524 0.04588,0.0792 0.02128,0.0259 0.04878,0.0512 0.08354,0.0745 0.03368,0.0226 0.07393,0.0431 0.121183,0.0608 0.09059,0.0339 0.208202,0.0572 0.359631,0.0631 0.144677,0.006 0.322511,-0.005 0.541996,-0.0384 0.413281,-0.0637 0.985906,-0.21266 1.789132,-0.51219 1.469821,-0.5481 3.786514,-1.62708 7.5295,-3.75593 3.486959,-1.98322 8.28333,-4.91813 14.9484,-9.30176 3.35172,-2.20806 6.37731,-5.05111 9.04646,-8.29112 2.62849,-3.19067 4.90161,-6.75508 6.78827,-10.44577 1.86797,-3.6541 3.35573,-7.42926 4.42774,-11.0709 0.18936,-0.64328 0.36112,-1.28139 0.52474,-1.91659 0.61101,-0.39238 1.08471,-0.70045 1.22125,-0.79221 0.0328,-0.022 -0.3131,-0.61742 -0.72122,-1.30047 0.47259,-2.19042 0.77944,-4.30076 0.90672,-6.26511 0.10186,-1.57205 0.0903,-3.07484 -0.0525,-4.46616 -0.14255,-1.38798 -0.42074,-2.713 -0.87888,-3.90417 -0.46335,-1.20472 -1.12589,-2.32152 -2.08484,-3.22374 -0.48306,-0.45448 -1.03207,-0.84342 -1.64755,-1.14713 -0.61744,-0.30468 -1.27846,-0.51218 -1.97111,-0.62161 -0.34739,-0.0549 -0.69799,-0.0843 -1.05066,-0.0906 z m 0.3361,5.62898 c 0.15869,0.001 0.29327,0.0196 0.41023,0.0522 0.1186,0.033 0.24383,0.0871 0.37884,0.18041 0.27484,0.18991 0.60558,0.55525 0.92163,1.20164 0.3139,0.64198 0.57954,1.49393 0.76044,2.55899 0.17974,1.05818 0.26851,2.2827 0.25492,3.64925 -0.003,0.30488 -0.0131,0.61761 -0.0263,0.93379 -0.33099,-0.43245 -0.5915,-0.7609 -0.61494,-0.74515 -0.12203,0.082 -3.37788,2.32621 -6.98123,4.64304 -1.93905,1.24675 -4.29407,2.72254 -6.72945,4.15282 -2.24372,1.31772 -4.57862,2.61026 -6.69101,3.63003 -0.67792,0.32727 -1.31445,0.61606 -1.91071,0.86868 0.60375,-1.08246 1.40912,-2.3704 2.48133,-3.91476 1.17763,-1.69618 2.64803,-3.66632 4.45637,-5.9443 3.52611,-4.44373 6.46122,-7.38623 8.82095,-9.16136 1.15736,-0.87064 2.11347,-1.41297 2.88058,-1.72874 0.75436,-0.31053 1.26911,-0.37879 1.58833,-0.3765 z m -72.309307,8.97391 -8.361709,8.36171 8.361709,8.36171 8.36171,-8.36171 z m -26.35266,5.29955 c -0.270991,1.13654 -0.563073,2.60628 -0.78907,4.46538 -0.18375,1.51158 -0.322988,3.27493 -0.369043,5.28073 -0.07813,3.4027 0.114613,7.51161 0.806326,11.91174 0.613879,3.90501 1.624568,8.04269 3.168045,11.87684 1.465913,3.64147 3.446738,7.09309 6.096075,9.75199 1.324839,1.32963 2.827305,2.4715 4.524602,3.33394 1.721999,0.87499 3.610097,1.44407 5.652517,1.64403 2.088507,0.20446 4.269278,0.0162 6.516886,-0.55926 2.32791,-0.596 4.692445,-1.59795 7.077706,-2.96646 5.268756,-3.02287 10.551989,-7.78416 15.717864,-13.7044 6.794097,-7.78623 13.043612,-17.19214 18.097233,-25.75262 l -3.921427,-2.31466 -3.921033,-2.31505 c -4.950245,8.38537 -10.67735,17.39037 -16.743813,24.93924 -4.611462,5.73832 -9.000949,10.11045 -13.103188,12.94984 -1.836492,1.27114 -3.555216,2.1932 -5.159153,2.80685 -1.539182,0.58887 -2.972474,0.89413 -4.314785,0.95574 -1.310874,0.0602 -2.5761,-0.11025 -3.80887,-0.51454 -1.224954,-0.40172 -2.426817,-1.03783 -3.59866,-1.91463 -2.38148,-1.78187 -4.49188,-4.4475 -6.270988,-7.67931 -1.853506,-3.36696 -3.254463,-7.17551 -4.249291,-10.90776 -1.115538,-4.18512 -1.704213,-8.19786 -1.929142,-11.55524 -0.13244,-1.97685 -0.140445,-3.73706 -0.06432,-5.24936 0.09386,-1.8646 0.314395,-3.3459 0.585527,-4.48303 z m 77.128837,9.83945 c 0.0189,0.18328 -0.007,0.2803 -0.0184,0.28394 -0.0159,0.005 -0.017,-0.10108 0.0184,-0.28394 z" />
    </g>
  </g>
</svg>
